<svg width="355" height="477" viewBox="0 0 355 477" fill="none" xmlns="http://www.w3.org/2000/svg">
<g clip-path="url(#clip0_1_7)">
<path d="M64.5192 2.57353C40.9192 8.70686 22.9192 23.7735 11.5859 46.7069C-7.34743 84.8402 -3.34743 123.907 25.9859 188.04C33.4526 204.44 35.5859 216.174 36.6526 246.574C37.4526 273.507 40.5192 325.107 42.7859 349.24C46.2526 386.974 54.1192 419.24 67.9859 452.44C73.4526 465.374 82.1192 475.24 89.5859 476.574C99.3192 478.44 108.253 470.44 111.853 456.574C112.519 453.64 113.853 444.574 114.653 436.574C118.786 395.24 126.519 356.307 136.386 326.974C147.319 295.107 155.319 281.907 167.186 276.44C175.586 272.574 180.119 272.44 187.586 276.04C194.786 279.507 200.119 286.307 206.519 300.174C223.586 337.24 233.986 379.374 239.853 435.64C242.653 462.574 245.186 470.44 252.119 473.907C264.119 480.174 277.053 472.44 285.319 454.04C301.053 419.374 309.453 382.174 313.319 330.574C316.119 292.307 318.653 245.64 318.653 231.907C318.653 213.774 320.786 205.24 330.519 184.307C334.786 174.974 340.653 161.24 343.319 153.907C362.519 102.44 355.853 49.1069 326.919 22.4402C305.853 2.97353 279.719 -1.95981 229.319 4.04019C190.919 8.70686 153.986 8.44019 123.719 3.50686C97.0526 -0.89314 78.5192 -1.15981 64.5192 2.57353ZM77.0526 62.7069C79.3192 68.4402 87.1859 74.1735 95.3192 76.0402C102.919 77.7735 106.386 79.9069 101.453 79.9069C96.9192 79.9069 86.1192 84.0402 82.9192 87.1069C78.6526 90.8402 77.1859 93.7735 74.5192 103.24L72.3859 111.24L70.7859 105.24C66.7859 89.5069 61.7192 84.0402 48.3859 81.1069C44.5192 80.1735 41.3192 79.1069 41.3192 78.5735C41.3192 78.0402 43.8526 77.1069 47.0526 76.7069C59.7192 74.7069 66.9192 67.3735 70.9192 51.9069L72.3859 45.9069L73.9859 52.5735C74.9192 56.1735 76.2526 60.8402 77.0526 62.7069Z" fill="#2DD4BF"/>
</g>
<defs>
<clipPath id="clip0_1_7">
<rect width="354.211" height="476.845" fill="white"/>
</clipPath>
</defs>
</svg>
