<svg xmlns="http://www.w3.org/2000/svg" xmlns:xlink="http://www.w3.org/1999/xlink" version="1.1" width="256" height="256" viewBox="0 0 256 256" xml:space="preserve">

<defs>
</defs>
<g style="stroke: none; stroke-width: 0; stroke-dasharray: none; stroke-linecap: butt; stroke-linejoin: miter; stroke-miterlimit: 10; fill: none; fill-rule: nonzero; opacity: 1;" transform="translate(1.4065934065934016 1.4065934065934016) scale(2.81 2.81)" >
	<path d="M 72.479 41.953 c 0.002 -0.345 -0.007 -0.691 -0.031 -1.037 c 0.045 -6.644 -12.864 -24.021 -20.103 -38.505 c -0.883 -1.767 -2.894 -2.793 -4.799 -2.27 c -2.119 0.583 -3.369 2.698 -2.92 4.794 l 4.702 21.546 c -2.301 1.716 -4.818 4.539 -4.11 9.707 l 2.096 14.402 c 0.136 2.239 -0.638 4.181 -1.46 6.238 c -0.879 2.198 -1.789 4.482 -1.601 7.204 l 0 0 c 0.197 2.917 0.793 5.793 1.77 8.548 l 1.116 3.148 L 65.05 69 l -0.336 -0.433 l 4.572 0.031 l -0.546 -8.062 c -0.22 -3.255 0.828 -6.53 1.842 -9.7 C 71.506 47.949 72.458 44.973 72.479 41.953 z" style="stroke: none; stroke-width: 1; stroke-dasharray: none; stroke-linecap: butt; stroke-linejoin: miter; stroke-miterlimit: 10; fill: rgb(254,201,163); fill-rule: nonzero; opacity: 1;" transform=" matrix(1 0 0 1 0 0) " stroke-linecap="round" />
	<path d="M 57.616 51.11 c 1.206 -8.086 -1.886 -17.834 -5.427 -23.805 c -0.585 -0.987 -1.841 -1.347 -2.862 -0.823 l 0 0 C 52.326 27.536 56.222 42.505 57.616 51.11 z" style="stroke: none; stroke-width: 1; stroke-dasharray: none; stroke-linecap: butt; stroke-linejoin: miter; stroke-miterlimit: 10; fill: rgb(229,181,149); fill-rule: nonzero; opacity: 1;" transform=" matrix(1 0 0 1 0 0) " stroke-linecap="round" />
	<path d="M 49.262 2.283 C 56.48 17.31 69.495 35.416 69.448 42.322 c 0.023 0.358 0.033 0.716 0.031 1.073 c -0.021 3.126 -0.975 6.206 -1.899 9.195 c -1.015 3.281 -2.064 6.671 -1.844 10.039 l 0.387 5.947 l 3.163 0.022 l -0.546 -8.062 c -0.22 -3.255 0.828 -6.53 1.842 -9.7 c 0.923 -2.888 1.876 -5.864 1.897 -8.884 c 0.002 -0.345 -0.007 -0.691 -0.031 -1.037 c 0.046 -6.672 -12.974 -24.169 -20.196 -38.69 c -0.933 -1.877 -3.162 -2.705 -5.113 -1.947 C 48.034 0.645 48.805 1.331 49.262 2.283 z" style="stroke: none; stroke-width: 1; stroke-dasharray: none; stroke-linecap: butt; stroke-linejoin: miter; stroke-miterlimit: 10; fill: rgb(229,181,149); fill-rule: nonzero; opacity: 1;" transform=" matrix(1 0 0 1 0 0) " stroke-linecap="round" />
	<path d="M 75.267 62.921 l 5.069 10.922 c 0.587 1.265 0.038 2.766 -1.227 3.353 l -27.08 12.568 c -1.265 0.587 -2.766 0.038 -3.353 -1.227 l -5.069 -10.922 c -0.587 -1.265 -0.038 -2.766 1.227 -3.353 l 27.08 -12.568 C 73.179 61.107 74.68 61.656 75.267 62.921 z" style="stroke: none; stroke-width: 1; stroke-dasharray: none; stroke-linecap: butt; stroke-linejoin: miter; stroke-miterlimit: 10; fill: rgb(67,152,209); fill-rule: nonzero; opacity: 1;" transform=" matrix(1 0 0 1 0 0) " stroke-linecap="round" />
	<path d="M 43.606 77.615 l 0.522 1.126 c 0.081 -0.049 0.156 -0.104 0.244 -0.145 l 27.08 -12.568 c 1.265 -0.587 2.766 -0.038 3.353 1.227 l 4.546 9.796 c 1.083 -0.659 1.53 -2.031 0.983 -3.209 l -5.069 -10.922 c -0.587 -1.265 -2.088 -1.815 -3.353 -1.227 l -27.08 12.568 C 43.569 74.849 43.019 76.35 43.606 77.615 z" style="stroke: none; stroke-width: 1; stroke-dasharray: none; stroke-linecap: butt; stroke-linejoin: miter; stroke-miterlimit: 10; fill: rgb(62,144,186); fill-rule: nonzero; opacity: 1;" transform=" matrix(1 0 0 1 0 0) " stroke-linecap="round" />
	<path d="M 17.521 41.953 c -0.002 -0.345 0.007 -0.691 0.031 -1.037 c -0.045 -6.644 12.864 -24.021 20.103 -38.505 c 0.883 -1.767 2.894 -2.793 4.799 -2.27 c 2.119 0.583 3.369 2.698 2.92 4.794 l -4.702 21.546 c 2.301 1.716 4.818 4.539 4.11 9.707 l -2.096 14.402 c -0.136 2.239 0.638 4.181 1.46 6.238 c 0.879 2.198 1.789 4.482 1.601 7.204 l 0 0 c -0.197 2.917 -0.793 5.793 -1.77 8.548 l -1.116 3.148 L 24.95 69 l 0.336 -0.433 l -4.572 0.031 l 0.546 -8.062 c 0.22 -3.255 -0.828 -6.53 -1.842 -9.7 C 18.494 47.949 17.542 44.973 17.521 41.953 z" style="stroke: none; stroke-width: 1; stroke-dasharray: none; stroke-linecap: butt; stroke-linejoin: miter; stroke-miterlimit: 10; fill: rgb(254,201,163); fill-rule: nonzero; opacity: 1;" transform=" matrix(1 0 0 1 0 0) " stroke-linecap="round" />
	<path d="M 32.384 51.11 c -1.206 -8.086 1.886 -17.834 5.427 -23.805 c 0.585 -0.987 1.841 -1.347 2.862 -0.823 l 0 0 C 37.674 27.536 33.778 42.505 32.384 51.11 z" style="stroke: none; stroke-width: 1; stroke-dasharray: none; stroke-linecap: butt; stroke-linejoin: miter; stroke-miterlimit: 10; fill: rgb(229,181,149); fill-rule: nonzero; opacity: 1;" transform=" matrix(1 0 0 1 0 0) " stroke-linecap="round" />
	<path d="M 40.738 2.283 C 33.52 17.31 20.505 35.416 20.552 42.322 c -0.023 0.358 -0.033 0.716 -0.031 1.073 c 0.021 3.126 0.975 6.206 1.899 9.195 c 1.015 3.281 2.064 6.671 1.844 10.039 l -0.387 5.947 l -3.163 0.022 l 0.546 -8.062 c 0.22 -3.255 -0.828 -6.53 -1.842 -9.7 c -0.923 -2.888 -1.876 -5.864 -1.897 -8.884 c -0.002 -0.345 0.007 -0.691 0.031 -1.037 c -0.046 -6.672 12.974 -24.169 20.196 -38.69 c 0.933 -1.877 3.162 -2.705 5.113 -1.947 C 41.966 0.645 41.195 1.331 40.738 2.283 z" style="stroke: none; stroke-width: 1; stroke-dasharray: none; stroke-linecap: butt; stroke-linejoin: miter; stroke-miterlimit: 10; fill: rgb(229,181,149); fill-rule: nonzero; opacity: 1;" transform=" matrix(1 0 0 1 0 0) " stroke-linecap="round" />
	<path d="M 14.733 62.921 L 9.664 73.843 c -0.587 1.265 -0.038 2.766 1.227 3.353 l 27.08 12.568 c 1.265 0.587 2.766 0.038 3.353 -1.227 l 5.069 -10.922 c 0.587 -1.265 0.038 -2.766 -1.227 -3.353 l -27.08 -12.568 C 16.821 61.107 15.32 61.656 14.733 62.921 z" style="stroke: none; stroke-width: 1; stroke-dasharray: none; stroke-linecap: butt; stroke-linejoin: miter; stroke-miterlimit: 10; fill: rgb(67,152,209); fill-rule: nonzero; opacity: 1;" transform=" matrix(1 0 0 1 0 0) " stroke-linecap="round" />
	<path d="M 46.394 77.615 l -0.522 1.126 c -0.081 -0.049 -0.156 -0.104 -0.244 -0.145 l -27.08 -12.568 c -1.265 -0.587 -2.766 -0.038 -3.353 1.227 l -4.546 9.796 c -1.083 -0.659 -1.53 -2.031 -0.983 -3.209 l 5.069 -10.922 c 0.587 -1.265 2.088 -1.815 3.353 -1.227 l 27.08 12.568 C 46.431 74.849 46.981 76.35 46.394 77.615 z" style="stroke: none; stroke-width: 1; stroke-dasharray: none; stroke-linecap: butt; stroke-linejoin: miter; stroke-miterlimit: 10; fill: rgb(62,144,186); fill-rule: nonzero; opacity: 1;" transform=" matrix(1 0 0 1 0 0) " stroke-linecap="round" />
</g>
</svg>